<svg width="14" height="22" viewBox="0 0 14 22" fill="none" xmlns="http://www.w3.org/2000/svg">
<path d="M7 22C3.20868 22 0.125 18.9163 0.125 15.125V5.5C0.125 4.9931 0.535721 4.58339 1.04161 4.58339C1.54767 4.58339 1.95839 4.9931 1.95839 5.5V15.125C1.95839 17.9044 4.21979 20.1666 7 20.1666C9.78021 20.1666 12.0416 17.9044 12.0416 15.125V5.04161C12.0416 3.27251 10.6025 1.83339 8.83339 1.83339C7.06412 1.83339 5.625 3.27251 5.625 5.04161V14.2084C5.625 14.9664 6.24184 15.5834 7 15.5834C7.75816 15.5834 8.375 14.9664 8.375 14.2084V5.5C8.375 4.9931 8.78572 4.58339 9.29161 4.58339C9.79767 4.58339 10.2084 4.9931 10.2084 5.5V14.2084C10.2084 15.9775 8.7691 17.4166 7 17.4166C5.2309 17.4166 3.79161 15.9775 3.79161 14.2084V5.04161C3.79161 2.26241 6.05301 0 8.83339 0C11.6136 0 13.875 2.26241 13.875 5.04161V15.125C13.875 18.9163 10.7913 22 7 22Z" fill="#CA1E1E"/>
</svg>
