<svg width="10" height="9" viewBox="0 0 10 9" fill="none" xmlns="http://www.w3.org/2000/svg">
<path d="M3.02617 8.25961C3.11143 8.34487 3.22708 8.39275 3.34764 8.39275C3.46823 8.39275 3.58386 8.34484 3.66908 8.25961L9.86682 2.06187C9.95211 1.97661 9.99999 1.86099 9.99999 1.74043C9.99999 1.61984 9.95211 1.50421 9.86682 1.41896L8.58098 0.133144C8.40347 -0.044366 8.11561 -0.0443963 7.93807 0.133144L3.34776 4.72351L2.06189 3.43763C1.97663 3.35238 1.86098 3.30446 1.74042 3.30446C1.61985 3.30446 1.50423 3.35238 1.41898 3.43763L0.133132 4.72348C-0.0443774 4.90102 -0.0443774 5.18885 0.133132 5.36639L3.02617 8.25961Z" fill="#CA1E1E"/>
</svg>
