<svg width="18" height="18" viewBox="0 0 18 18" fill="none" xmlns="http://www.w3.org/2000/svg">
<path d="M0.317186 7.40681L17.2624 0.0436905C17.4611 -0.042618 17.6923 0.00132729 17.8455 0.154468C17.9986 0.307643 18.0426 0.538901 17.9562 0.737533L10.5931 17.6828C10.5091 17.8762 10.3186 18 10.1096 18C10.0997 18 10.0897 17.9997 10.0797 17.9992C9.85918 17.9867 9.66979 17.8381 9.60521 17.6269L8.02627 12.4643C7.66104 11.27 6.72996 10.339 5.53567 9.9737L0.373121 8.39476C0.161938 8.33015 0.0133324 8.14076 0.000850677 7.92026C-0.0116291 7.69976 0.114616 7.49484 0.317186 7.40681Z" fill="#CA1E1E"/>
</svg>
