<svg width="14" height="14" viewBox="0 0 14 14" fill="none" xmlns="http://www.w3.org/2000/svg">
<path d="M7 14C3.14014 14 0 10.8599 0 7C0 3.14011 3.14014 0 7 0C10.8599 0 14 3.14014 14 7C14 10.8599 10.8599 14 7 14ZM7 1.53005C3.98379 1.53005 1.53005 3.98379 1.53005 7C1.53005 10.0161 3.98379 12.4699 7 12.4699C10.0162 12.4699 12.4699 10.0161 12.4699 7C12.4699 3.98379 10.0162 1.53005 7 1.53005Z" fill="#CA1E1E"/>
<path d="M7.60588 6.99165V9.92551C7.60588 10.2531 7.34043 10.5186 7.01297 10.5186C6.68541 10.5186 6.41992 10.2531 6.41992 9.92551V6.8022C6.41992 6.79287 6.42222 6.78412 6.42267 6.7748C6.41487 6.61354 6.47042 6.44981 6.59358 6.32663L8.80222 4.11815C9.03388 3.88649 9.40934 3.88649 9.64082 4.11815C9.87233 4.34981 9.87248 4.72527 9.64082 4.95678L7.60588 6.99165Z" fill="#CA1E1E"/>
</svg>
