<svg width="20" height="20" viewBox="0 0 20 20" fill="none" xmlns="http://www.w3.org/2000/svg">
<path d="M13.3 9.99938L19.4872 16.1866C20.1709 16.8703 20.1709 17.9786 19.4872 18.6612L18.6624 19.486C17.9786 20.1698 16.8702 20.1698 16.1877 19.486L10.0006 13.299L3.81336 19.4873C3.12973 20.1709 2.0214 20.1709 1.33884 19.4873L0.512721 18.6624C-0.170907 17.9786 -0.170907 16.8703 0.512721 16.1877L6.70105 9.99938L0.514003 3.81233C-0.169839 3.12849 -0.169839 2.02016 0.514003 1.3376L1.33884 0.512758C2.02247 -0.17087 3.1308 -0.17087 3.81336 0.512758L10.0006 6.70002L16.1877 0.512758C16.8715 -0.17087 17.9798 -0.17087 18.6624 0.512758L19.4872 1.3376C20.1709 2.02144 20.1709 3.12977 19.4872 3.81233L13.3 9.99938Z" fill="#fff"/>
</svg>
