<?xml version="1.0" encoding="UTF-8"?>
<!DOCTYPE svg PUBLIC "-//W3C//DTD SVG 1.1//EN" "http://www.w3.org/Graphics/SVG/1.1/DTD/svg11.dtd">
<!-- Creator: CorelDRAW 2020 (64-Bit) -->
<svg xmlns="http://www.w3.org/2000/svg" xml:space="preserve" width="6.434mm" height="5.2256mm" version="1.1" style="shape-rendering:geometricPrecision; text-rendering:geometricPrecision; image-rendering:optimizeQuality; fill-rule:evenodd; clip-rule:evenodd"
viewBox="0 0 659.89 535.95"
 xmlns:xlink="http://www.w3.org/1999/xlink"
 xmlns:xodm="http://www.corel.com/coreldraw/odm/2003">
 <defs>
  <style type="text/css">
   <![CDATA[
    .fil0 {fill:#CA1E1E}
   ]]>
  </style>
 </defs>
 <g id="Слой_x0020_1">
  <metadata id="CorelCorpID_0Corel-Layer"/>
  <g id="_1120530816">
   <path class="fil0" d="M144.35 225.27c4.93,3.61 30.14,43.97 35.58,52.06l33.58 55.35c3.68,6.75 7.47,12.5 10.76,18.88 3.35,6.5 6.81,12.74 10.31,19.34l-180.44 0c13.74,-25.97 27.77,-49.6 42.77,-74.51l34.82 -54.11c2.5,-3.77 9.88,-15.01 12.63,-17.02zm-144.35 167.55c0,12.21 1.45,22.55 4.09,33.28 26.72,108.02 162.46,147.52 242.41,67.58 22.34,-22.34 42.19,-57.3 42.19,-100.86 0,-24.31 -124.49,-228.12 -144.35,-228.12 -9.03,0 -37.47,40.69 -43.31,49.49 -6.5,9.79 -12.7,17.87 -18.6,27.78l-35.48 57.32c-8.83,14.7 -46.95,79.34 -46.95,93.53z"/>
   <path class="fil0" d="M515.54 225.27c2.8,2.05 4.11,4.86 6.17,8 19.04,28.86 33.97,49.5 51.89,80.86l32.15 56.78 -180.44 0 36.97 -64.84c2.13,-3.6 3.63,-6.3 5.82,-9.66l34.8 -54.12c2.5,-3.77 9.89,-15.01 12.64,-17.02zm144.35 167.53l0 0.47c-0.08,30.5 -8.01,48.36 -19.32,70.45 -11.72,22.88 -41.23,49.22 -64.6,59.13 -47.57,20.15 -101.25,17.34 -143.66,-13.28l-18.91 -15.89c-22.15,-22.28 -42.2,-57.45 -42.2,-100.86 0,-22.22 123.62,-228.12 144.36,-228.12 19.52,0 144.27,203.67 144.35,228.1z"/>
   <path class="fil0" d="M288.7 80.92c0,-20.68 19.29,-39.96 39.96,-39.96 56.94,0 54.98,82.48 1.29,82.48 -23.29,0 -41.25,-19.03 -41.25,-42.52zm-29.64 -39.96c-36.08,0 -72.17,0 -108.26,0 -26.08,0 -47.16,-3.82 -61.91,19.29 -8.65,13.55 -8.65,30.36 0,43.9 4.54,7.12 6.36,8.58 13.66,13.42 12.35,8.14 28.83,5.88 48.25,5.88 36.08,0 72.17,0 108.26,0 4.8,9.08 10.34,15.51 18.22,21.75 29.07,23.03 66.33,26.86 97.28,6.1 11.43,-7.64 19.82,-15.63 26.29,-27.86 36.08,0 72.17,0 108.27,0 28.83,0 46.63,3.55 61.9,-19.3 12.41,-18.58 6.87,-44.08 -13.46,-57.49 -11.72,-7.73 -29.85,-5.69 -48.44,-5.69 -36.09,0 -72.18,0 -108.27,0 -28.91,-54.64 -112.89,-54.58 -141.78,0z"/>
  </g>
 </g>
</svg>
