<svg width="30" height="30" viewBox="0 0 30 30" fill="none" xmlns="http://www.w3.org/2000/svg">
<g clip-path="url(#clip0)">
<path d="M15.0001 0C6.72904 0 0 6.72904 0 15.0001C0 23.2712 6.72904 30.0002 15.0001 30.0002C23.2712 30.0002 30.0002 23.2712 30.0002 15.0001C30.0002 6.72904 23.271 0 15.0001 0ZM15.0001 27.4287C8.14709 27.4287 2.57147 21.8531 2.57147 15.0001C2.57147 8.14709 8.14709 2.57147 15.0001 2.57147C21.8531 2.57147 27.4287 8.14709 27.4287 15.0001C27.4287 21.8531 21.8529 27.4287 15.0001 27.4287Z" fill="#CA1E1E"/>
<path d="M20.8034 9.19675C20.3012 8.69451 19.4868 8.69451 18.9854 9.19675L14.9993 13.1833L11.0132 9.19675C10.511 8.69451 9.69745 8.69451 9.19521 9.19675C8.69297 9.69899 8.69297 10.5125 9.19521 11.0148L13.1813 15.0012L9.19504 18.9878C8.6928 19.49 8.6928 20.3036 9.19504 20.8058C9.44607 21.0568 9.77511 21.1825 10.1041 21.1825C10.4332 21.1825 10.7625 21.057 11.0132 20.8058L14.9993 16.8194L18.9854 20.8058C19.2364 21.0568 19.5655 21.1825 19.8945 21.1825C20.2235 21.1825 20.5524 21.057 20.8036 20.8058C21.3058 20.3036 21.3058 19.49 20.8036 18.9878L16.8173 15.0014L20.8034 11.0149C21.3056 10.5127 21.3056 9.69899 20.8034 9.19675Z" fill="#CA1E1E"/>
</g>
<defs>
<clipPath id="clip0">
<rect width="30" height="30" fill="white"/>
</clipPath>
</defs>
</svg>
