<svg width="14" height="11" viewBox="0 0 14 11" fill="none" xmlns="http://www.w3.org/2000/svg">
<path d="M12.7498 11.0001C13.0645 11.0001 13.3372 10.8962 13.569 10.691L9.6026 6.72446C9.50744 6.7926 9.4152 6.85887 9.32806 6.92188C9.03124 7.14057 8.79033 7.31123 8.60533 7.43351C8.42037 7.55608 8.17427 7.681 7.86707 7.80855C7.55967 7.93625 7.27329 7.9999 7.00762 7.9999H6.99984H6.99207C6.72638 7.9999 6.43999 7.93628 6.13261 7.80855C5.82524 7.681 5.57914 7.55608 5.39435 7.43351C5.20939 7.31123 4.96861 7.1406 4.67162 6.92188C4.58886 6.8612 4.49708 6.79463 4.39785 6.72339L0.430664 10.691C0.662449 10.8962 0.935309 11.0001 1.24998 11.0001H12.7498Z" fill="#CA1E1E"/>
<path d="M0.789147 4.22665C0.492343 4.02877 0.229142 3.80215 0 3.54688V9.5817L3.49599 6.08571C2.79659 5.59743 1.89546 4.97846 0.789147 4.22665Z" fill="#CA1E1E"/>
<path d="M13.2187 4.22665C12.1546 4.94689 11.2502 5.56693 10.5054 6.08711L14 9.58185V3.54688C13.7759 3.79701 13.5155 4.02348 13.2187 4.22665Z" fill="#CA1E1E"/>
<path d="M12.75 0H1.25016C0.84897 0 0.540525 0.135477 0.324448 0.406151C0.108194 0.676952 0.000244141 1.01562 0.000244141 1.42177C0.000244141 1.74984 0.143499 2.10531 0.429881 2.48828C0.716264 2.87109 1.021 3.17179 1.34393 3.39051C1.52097 3.51559 2.05484 3.88674 2.94556 4.50383C3.42639 4.83703 3.84453 5.12746 4.20387 5.37808C4.51015 5.59148 4.77429 5.7763 4.99238 5.92967C5.01741 5.94723 5.05679 5.97539 5.10905 6.01276C5.16535 6.0532 5.23659 6.10452 5.32449 6.16799C5.49374 6.2904 5.63436 6.38935 5.74635 6.46494C5.85818 6.54056 5.99369 6.62502 6.15265 6.71881C6.31149 6.81248 6.4613 6.88291 6.60191 6.92976C6.74255 6.97658 6.87274 7.00006 6.9925 7.00006H7.00028H7.00806C7.1278 7.00006 7.25802 6.97658 7.39868 6.92976C7.53927 6.88291 7.68895 6.81263 7.84792 6.71881C8.00673 6.62502 8.14205 6.54038 8.25424 6.46494C8.36624 6.38935 8.50685 6.29042 8.67613 6.16799C8.76385 6.10452 8.83509 6.05317 8.89139 6.01289C8.94368 5.97537 8.98302 5.94738 9.00821 5.92967C9.17811 5.81145 9.44286 5.6274 9.79881 5.38024C10.4465 4.93021 11.4004 4.26785 12.6645 3.39051C13.0446 3.12497 13.3623 2.80452 13.6175 2.42964C13.8723 2.05475 14.0001 1.66151 14.0001 1.25005C14.0001 0.906272 13.8762 0.612112 13.629 0.367109C13.3816 0.122412 13.0885 0 12.75 0Z" fill="#CA1E1E"/>
</svg>
