<?xml version="1.0" encoding="UTF-8"?>
<!DOCTYPE svg PUBLIC "-//W3C//DTD SVG 1.1//EN" "http://www.w3.org/Graphics/SVG/1.1/DTD/svg11.dtd">
<!-- Creator: CorelDRAW 2020 (64-Bit) -->
<svg xmlns="http://www.w3.org/2000/svg" xml:space="preserve" width="6.579mm" height="6.25mm" version="1.1" style="shape-rendering:geometricPrecision; text-rendering:geometricPrecision; image-rendering:optimizeQuality; fill-rule:evenodd; clip-rule:evenodd"
viewBox="0 0 636.46 604.63"
 xmlns:xlink="http://www.w3.org/1999/xlink"
 xmlns:xodm="http://www.corel.com/coreldraw/odm/2003">
 <defs>
  <style type="text/css">
   <![CDATA[
    .fil0 {fill:#CA1E1E}
   ]]>
  </style>
 </defs>
 <g id="Слой_x0020_1">
  <metadata id="CorelCorpID_0Corel-Layer"/>
  <path class="fil0" d="M127.29 254.58c129.76,-10.79 129.5,-16.35 159.11,-127.28l63.66 0c29.61,110.93 29.35,116.5 159.11,127.28 -41.87,156.81 -63.65,25.48 -63.65,254.59 -138.79,-73.45 -115.8,-73.45 -254.58,0 0,-69.44 7.13,-81.23 -14.4,-144.72l-49.25 -109.88zm95.47 -95.46c-123.65,10.29 -82.92,28.71 -222.77,31.83 10.94,131.51 40.18,132.6 127.29,190.93 -21.82,93.64 -31.83,97.13 -31.83,222.77 130.24,-2.9 138.43,-19.03 222.77,-63.65 84.34,44.62 92.52,60.74 222.77,63.65 0,-125.64 -10.01,-129.13 -31.83,-222.77 87.12,-58.33 116.35,-59.42 127.29,-190.93 -139.85,-3.12 -99.12,-21.53 -222.77,-31.83 -26.97,-115.79 -17.57,-102.03 -95.46,-159.11 -77.9,57.08 -68.49,43.32 -95.46,159.11z"/>
 </g>
</svg>
