<svg width="254" height="49" viewBox="0 0 254 49" fill="none" xmlns="http://www.w3.org/2000/svg">
<path fill-rule="evenodd" clip-rule="evenodd" d="M5.08401 4.44524H11.4417V18.4529H16.0937V0.36182H0.432007V18.4529H5.08401V4.44524ZM25.2426 11.7075H28.6541C30.687 11.7075 32.2893 11.182 33.4612 10.131C34.0417 9.6189 34.5025 8.98526 34.8107 8.27509C35.1189 7.56491 35.267 6.79559 35.2444 6.02175C35.2685 5.25149 35.121 4.4855 34.8125 3.77927C34.5041 3.07303 34.0425 2.44421 33.4612 1.93833C32.2893 0.887756 30.687 0.362251 28.6541 0.36182H20.5907V18.4529H25.2426V11.7075ZM28.3181 4.29017C28.8978 4.25746 29.4715 4.42137 29.9463 4.75537C30.1433 4.91175 30.3001 5.11298 30.4035 5.34227C30.5069 5.57156 30.554 5.82226 30.5408 6.07344C30.5527 6.32762 30.5039 6.58098 30.3983 6.81247C30.2926 7.04397 30.1333 7.24692 29.9334 7.40443C29.4652 7.74315 28.8953 7.91183 28.3181 7.88254H25.2426V4.29017H28.3181ZM42.8168 9.40737C42.7624 8.05456 43.2456 6.73519 44.1608 5.73746C44.6006 5.27981 45.1283 4.91571 45.7123 4.667C46.2963 4.41829 46.9245 4.29008 47.5593 4.29008C48.194 4.29008 48.8223 4.41829 49.4063 4.667C49.9903 4.91571 50.518 5.27981 50.9578 5.73746C51.8413 6.75603 52.3276 8.05907 52.3276 9.40737C52.3276 10.7557 51.8413 12.0587 50.9578 13.0773C50.518 13.5349 49.9903 13.899 49.4063 14.1477C48.8223 14.3964 48.194 14.5246 47.5593 14.5246C46.9245 14.5246 46.2963 14.3964 45.7123 14.1477C45.1283 13.899 44.6006 13.5349 44.1608 13.0773C43.2453 12.0797 42.7624 10.7602 42.8168 9.40737ZM57.1088 9.40737C57.1326 8.16997 56.9043 6.94068 56.4377 5.79435C55.9712 4.64802 55.2762 3.60865 54.3951 2.73951C52.586 0.913604 50.3117 0.000430893 47.5722 1.52312e-07C44.8327 -0.000430588 42.5584 0.912742 40.7493 2.73951C39.0095 4.52299 38.0357 6.91584 38.0357 9.40737C38.0357 11.8989 39.0095 14.2918 40.7493 16.0752C42.5584 17.9018 44.8327 18.8149 47.5722 18.8147C50.3117 18.8145 52.586 17.9014 54.3951 16.0752C55.2763 15.2061 55.9712 14.1668 56.4377 13.0204C56.9042 11.8741 57.1327 10.6448 57.1088 9.40737ZM65.6888 7.41735L69.0228 12.2761H71.5814L74.8119 7.41735V18.4529H79.4381V0.36182H74.8378L70.2374 7.31397L65.663 0.36182H61.0368V18.4529H65.6888V7.41735ZM96.5467 16.7213C97.1684 16.1453 97.6639 15.4466 98.002 14.6694C98.34 13.8922 98.5133 13.0534 98.5109 12.2058C98.5085 11.3583 98.3304 10.5205 97.9878 9.74521C97.6453 8.96996 97.1458 8.27413 96.5209 7.70163C95.1942 6.53024 93.4368 5.94443 91.2486 5.94421H88.5867V0.36182H83.9347V18.4529H91.2486C93.471 18.4529 95.2373 17.8757 96.5467 16.7213ZM90.9643 9.71751C91.713 9.67571 92.4516 9.90509 93.0448 10.3636C93.2971 10.5794 93.4969 10.8498 93.629 11.1543C93.7611 11.4588 93.8221 11.7894 93.8072 12.121C93.8212 12.4469 93.7596 12.7715 93.6273 13.0697C93.4951 13.3678 93.2957 13.6313 93.0448 13.8397C92.4483 14.2906 91.7109 14.515 90.9643 14.4729H88.5867V9.71751H90.9643ZM105.024 0.36182H100.372V18.4529H105.024V0.36182ZM132.936 0.36182H128.284V14.3695H123.554V0.36182H118.902V14.3695H114.173V0.36182H109.521V18.4529H132.936V0.36182ZM142.525 15.8943C143.317 14.4298 143.782 11.2768 143.921 6.43526L143.973 4.44524H148.314V18.4529H152.966V0.36182H139.448L139.396 5.81499C139.379 9.26092 139.224 11.5438 138.931 12.6638C138.673 13.7667 138.096 14.318 137.2 14.3178C136.724 14.3112 136.255 14.1963 135.83 13.9818V18.2462C136.455 18.5227 137.137 18.6468 137.82 18.608C139.974 18.608 141.542 17.7034 142.525 15.8943ZM171.416 14.3695H162.112V10.8288H169.349V6.90046H162.112V4.44524H171.209V0.36182H157.46V18.4529H171.416V14.3695ZM179.738 10.9322H186.561V18.4529H191.213V0.36182H186.561V6.79708H179.738V0.36182H175.086V18.4529H179.738V10.9322ZM200.362 10.9322H207.185V18.4529H211.837V0.36182H207.185V6.79708H200.362V0.36182H195.71V18.4529H200.362V10.9322ZM221.296 14.6279H228.015L229.54 18.4529H234.528L226.93 0.25845H222.459L214.861 18.4529H219.771L221.296 14.6279ZM226.542 10.9063H222.769L224.656 6.07344L226.542 10.9063ZM246.442 11.5525H248.355V18.4529H253.007V0.36182H244.504C242.508 0.36182 240.922 0.887325 239.749 1.93833C239.177 2.43407 238.723 3.05066 238.419 3.74347C238.115 4.43628 237.969 5.18799 237.991 5.94421C237.971 7.04962 238.296 8.13376 238.922 9.04555C239.561 9.95615 240.462 10.6503 241.506 11.0356L235.95 18.4529H241.299L246.442 11.5525ZM243.251 7.30105C243.067 7.14961 242.921 6.95749 242.825 6.73992C242.728 6.52236 242.684 6.28532 242.695 6.04759C242.686 5.80634 242.731 5.56611 242.827 5.34467C242.923 5.12323 243.068 4.92625 243.251 4.7683C243.68 4.4304 244.217 4.26042 244.762 4.29017H248.355V7.75332H244.762C244.221 7.78316 243.687 7.62321 243.251 7.30105ZM5.08401 37.7845L8.41794 42.6433H10.9765L14.2071 37.7845V48.8201H18.8332V30.729H14.2329L9.63261 37.6812L5.05816 30.729H0.432007V48.8201H5.08401V37.7845ZM37.2858 44.7367H27.9818V41.196H35.2183V37.2677H27.9818V34.8124H37.0791V30.729H23.3298V48.8201H37.2858V44.7367ZM54.1364 47.1402C54.7603 46.6006 55.2558 45.9284 55.5867 45.1727C55.9175 44.417 56.0755 43.597 56.0489 42.7725C56.0737 41.9445 55.9152 41.1212 55.5845 40.3616C55.2539 39.602 54.7594 38.925 54.1364 38.379C52.8612 37.2418 51.1468 36.6732 48.9933 36.6732H45.6336V34.7091H54.4724V30.729H40.9557V48.8201H48.9933C51.147 48.8201 52.8614 48.2601 54.1364 47.1402ZM48.6315 40.3173C49.3436 40.28 50.0454 40.5001 50.6086 40.9376C50.8515 41.1427 51.0442 41.4008 51.1719 41.692C51.2995 41.9832 51.3588 42.2998 51.3452 42.6174C51.3588 42.9276 51.2992 43.2366 51.1712 43.5194C51.0433 43.8023 50.8505 44.0511 50.6086 44.2456C50.0386 44.6673 49.3396 44.8774 48.6315 44.8401H45.6336V40.3173H48.6315ZM73.6231 44.7367H64.3191V41.196H71.5555V37.2677H64.3191V34.8124H73.4163V30.729H59.6671V48.8201H73.6231V44.7367ZM82.384 46.2615C83.1763 44.797 83.6415 41.644 83.7796 36.8025L83.8313 34.8124H88.1732V48.8201H92.8251V30.729H79.3085L79.2568 36.1822C79.2398 39.6281 79.0847 41.911 78.7916 43.031C78.5332 44.1339 77.956 44.6852 77.0601 44.685C76.5839 44.6784 76.1155 44.5635 75.6903 44.349V48.6133C76.3156 48.8899 76.9977 49.0139 77.6803 48.9752C79.834 48.9752 81.4019 48.0706 82.384 46.2615ZM110.528 47.0885C111.15 46.5125 111.645 45.8138 111.983 45.0366C112.322 44.2594 112.495 43.4205 112.492 42.573C112.49 41.7255 112.312 40.8876 111.969 40.1124C111.627 39.3372 111.127 38.6413 110.502 38.0688C109.176 36.8974 107.418 36.3116 105.23 36.3114H101.974V30.729H97.3217V48.8201H105.23C107.453 48.8201 109.219 48.2429 110.528 47.0885ZM104.946 40.0847C105.694 40.0429 106.433 40.2723 107.026 40.7308C107.279 40.9465 107.478 41.2169 107.61 41.5215C107.743 41.826 107.804 42.1566 107.789 42.4882C107.803 42.8141 107.741 43.1387 107.609 43.4368C107.477 43.735 107.277 43.9985 107.026 44.2069C106.43 44.6577 105.692 44.8821 104.946 44.8401H101.974V40.0847H104.946Z" fill="#313132"/>
</svg>
