<svg width="104" height="49" viewBox="0 0 104 49" fill="none" xmlns="http://www.w3.org/2000/svg">
<path fill-rule="evenodd" clip-rule="evenodd" d="M35.5361 48.8122V13.2761H12.9222V48.8122H0V0.353882H48.4583V48.8122H35.5361Z" fill="#4A4A4A"/>
<path fill-rule="evenodd" clip-rule="evenodd" d="M12.9222 13.2761V48.0149L12.1249 48.8122H0V0.353882H0.149899L13.0721 13.2761H12.9222Z" fill="black"/>
<path fill-rule="evenodd" clip-rule="evenodd" d="M0.0022583 28.6328L12.9216 15.7106V41.5515L0.0022583 28.6328ZM35.5354 13.2761H15.3574L28.2796 0.353882H48.4576V48.8122H47.316L35.5354 37.0303V13.2761Z" fill="#313132"/>
<path fill-rule="evenodd" clip-rule="evenodd" d="M72.6874 19.7481L90.4554 0.364794V19.7481L72.6874 39.1314V19.7481ZM72.6874 19.7481L54.9194 0.364794V19.7481L72.6874 39.1314V19.7481ZM90.4554 0.355103H103.378V48.8134H90.4554V0.355103Z" fill="#D84343"/>
<path fill-rule="evenodd" clip-rule="evenodd" d="M103.377 48.8134H90.4546V19.7481L72.6866 39.1314L55.0416 19.8825L64.3133 10.6108L72.6866 19.7481L90.4546 0.364794V0.355103H90.5192L103.377 13.2127V48.8134Z" fill="#CA1E1E"/>
</svg>
