<svg width="22" height="20" viewBox="0 0 22 20" fill="none" xmlns="http://www.w3.org/2000/svg">
<path d="M19.871 0H2.12903C0.958064 0 0 0.964286 0 2.14286C0 3.32143 0.958064 4.28571 2.12903 4.28571H19.871C21.0419 4.28571 22 3.32143 22 2.14286C22 0.964286 21.0419 0 19.871 0Z" fill="#CA1E1E"/>
<path d="M19.871 7.85718H2.12903C0.958064 7.85718 0 8.82146 0 10C0 11.1786 0.958064 12.1429 2.12903 12.1429H19.871C21.0419 12.1429 22 11.1786 22 10C22 8.82146 21.0419 7.85718 19.871 7.85718Z" fill="#CA1E1E"/>
<path d="M19.871 15.7142H2.12903C0.958064 15.7142 0 16.6785 0 17.8571C0 19.0357 0.958064 19.9999 2.12903 19.9999H19.871C21.0419 19.9999 22 19.0357 22 17.8571C22 16.6785 21.0419 15.7142 19.871 15.7142Z" fill="#CA1E1E"/>
</svg>
