<svg width="36" height="36" viewBox="0 0 36 36" fill="none" xmlns="http://www.w3.org/2000/svg">
<path d="M23.7761 0H5.11907C4.59964 0 4.17857 0.421071 4.17857 1.23814V35.3571C4.17857 35.5789 4.59964 36 5.11907 36H30.8809C31.4004 36 31.8214 35.5789 31.8214 35.3571V8.343C31.8214 7.89557 31.7616 7.75157 31.6562 7.6455L24.1759 0.165214C24.0699 0.0597857 23.9259 0 23.7761 0Z" fill="#E9E9E0"/>
<path d="M24.1071 0.0970459V7.71426H31.7244L24.1071 0.0970459Z" fill="#D9D7CA"/>
<path d="M12.5447 21.4226C12.321 21.4226 12.1063 21.3499 11.9231 21.213C11.2539 20.7109 11.1639 20.1523 11.2063 19.7717C11.3233 18.7251 12.6174 17.6297 15.0538 16.5137C16.0206 14.3949 16.9406 11.7842 17.4889 9.603C16.8474 8.20671 16.2238 6.39514 16.6783 5.3325C16.8377 4.96029 17.0364 4.67486 17.4073 4.55143C17.5539 4.50257 17.9241 4.44086 18.0604 4.44086C18.3844 4.44086 18.6692 4.85807 18.8711 5.11521C19.0607 5.35693 19.4908 5.86929 18.6313 9.48793C19.4979 11.2776 20.7257 13.1008 21.9021 14.3492C22.7449 14.1969 23.4701 14.1191 24.0609 14.1191C25.0676 14.1191 25.6776 14.3537 25.9264 14.8371C26.1321 15.237 26.0479 15.7044 25.6757 16.2257C25.3176 16.7265 24.8239 16.9914 24.2486 16.9914C23.4669 16.9914 22.5566 16.4976 21.5415 15.5224C19.7177 15.9036 17.5879 16.5838 15.8664 17.3366C15.3289 18.477 14.814 19.3956 14.3344 20.0694C13.6755 20.9919 13.1072 21.4226 12.5447 21.4226ZM14.256 18.1273C12.8822 18.8994 12.3223 19.5339 12.2818 19.8913C12.2754 19.9504 12.258 20.106 12.5589 20.3361C12.6546 20.3059 13.2139 20.0507 14.256 18.1273ZM23.0226 15.2717C23.5466 15.6748 23.6745 15.8786 24.0171 15.8786C24.1676 15.8786 24.5964 15.8721 24.795 15.5951C24.8908 15.4607 24.9281 15.3746 24.9429 15.3283C24.8638 15.2865 24.759 15.2016 24.1875 15.2016C23.8629 15.2023 23.4546 15.2164 23.0226 15.2717ZM18.2205 11.0404C17.7609 12.6309 17.154 14.3479 16.5015 15.903C17.8451 15.3816 19.3056 14.9265 20.6775 14.6044C19.8096 13.5964 18.9424 12.3377 18.2205 11.0404ZM17.8303 5.60057C17.7673 5.62179 16.9753 6.73007 17.892 7.668C18.5021 6.30836 17.8579 5.59157 17.8303 5.60057Z" fill="#CC4B4C"/>
<path d="M30.8809 36H5.11907C4.59964 36 4.17857 35.5789 4.17857 35.0595V25.0714H31.8214V35.0595C31.8214 35.5789 31.4004 36 30.8809 36Z" fill="#CC4B4C"/>
<path d="M11.1761 34.0714H10.1212V27.594H11.9842C12.2593 27.594 12.5319 27.6377 12.8012 27.7258C13.0706 27.8139 13.3123 27.9456 13.5264 28.1211C13.7404 28.2966 13.9134 28.5094 14.0452 28.7582C14.1769 29.007 14.2432 29.2866 14.2432 29.5978C14.2432 29.9263 14.1872 30.2233 14.076 30.4901C13.9648 30.7569 13.8092 30.9812 13.6099 31.1625C13.4107 31.3438 13.1702 31.4846 12.8893 31.5842C12.6084 31.6839 12.2972 31.7334 11.9578 31.7334H11.1754V34.0714H11.1761ZM11.1761 28.3937V30.96H12.1429C12.2715 30.96 12.3988 30.9381 12.5254 30.8938C12.6514 30.8501 12.7672 30.7781 12.8726 30.6784C12.978 30.5788 13.0629 30.4399 13.1272 30.2612C13.1914 30.0825 13.2236 29.8614 13.2236 29.5978C13.2236 29.4924 13.2088 29.3702 13.1799 29.2333C13.1503 29.0957 13.0905 28.9639 12.9999 28.8379C12.9086 28.7119 12.7813 28.6065 12.6174 28.5216C12.4534 28.4368 12.2362 28.3944 11.9668 28.3944H11.1761V28.3937Z" fill="white"/>
<path d="M20.7122 30.6527C20.7122 31.1856 20.655 31.6414 20.5406 32.0194C20.4262 32.3974 20.2815 32.7137 20.1054 32.9689C19.9292 33.2241 19.7319 33.4247 19.512 33.5713C19.2922 33.7179 19.08 33.8271 18.8749 33.9011C18.6699 33.9744 18.4822 34.0213 18.3124 34.0419C18.1427 34.0611 18.0167 34.0714 17.9344 34.0714H15.4826V27.594H17.4337C17.9788 27.594 18.4577 27.6808 18.8704 27.8531C19.2832 28.0254 19.6264 28.2561 19.899 28.5429C20.1716 28.8296 20.3747 29.1568 20.5097 29.5226C20.6447 29.889 20.7122 30.2657 20.7122 30.6527ZM17.5834 33.2981C18.2983 33.2981 18.8139 33.0699 19.1302 32.6128C19.4464 32.1557 19.6046 31.4936 19.6046 30.6264C19.6046 30.357 19.5724 30.0902 19.5082 29.8266C19.4432 29.5631 19.3192 29.3246 19.1347 29.1105C18.9502 28.8964 18.6994 28.7235 18.3832 28.5917C18.0669 28.4599 17.6567 28.3937 17.1527 28.3937H16.5375V33.2981H17.5834Z" fill="white"/>
<path d="M23.3139 28.3937V30.4329H26.0209V31.1535H23.3139V34.0714H22.2416V27.594H26.2929V28.3937H23.3139Z" fill="white"/>
</svg>
