<svg width="18" height="18" viewBox="0 0 18 18" fill="none" xmlns="http://www.w3.org/2000/svg">
<path d="M16.6 4.07257H14.6909V0.600012C14.6909 0.268664 14.4223 0 14.0909 0H3.90909C3.57775 0 3.30908 0.268629 3.30908 0.600012V4.07257H1.39999C0.628031 4.07257 0 4.70064 0 5.4726V11.509C0 12.281 0.628031 12.909 1.39999 12.909H3.30919V16.1298C3.30919 16.4611 3.57782 16.7298 3.9092 16.7298H14.0908C14.4221 16.7298 14.6908 16.4612 14.6908 16.1298V12.909H16.6C17.372 12.909 18 12.281 18 11.509V5.4726C18 4.70067 17.372 4.07257 16.6 4.07257ZM4.50907 1.20002H13.4909V4.07257H4.50907V1.20002ZM13.4908 15.5298H4.50921C4.50921 15.4125 4.50921 10.766 4.50921 10.621H13.4908C13.4908 10.7697 13.4908 15.417 13.4908 15.5298ZM16.8 11.509C16.8 11.6193 16.7103 11.709 16.6 11.709H14.6908V10.021C14.6908 9.6897 14.4222 9.42103 14.0908 9.42103H3.9092C3.57785 9.42103 3.30919 9.68966 3.30919 10.021V11.709H1.39999C1.28971 11.709 1.19999 11.6193 1.19999 11.509V5.47263C1.19999 5.36235 1.28971 5.27263 1.39999 5.27263C1.86033 5.27263 16.1505 5.27263 16.6 5.27263C16.7103 5.27263 16.8 5.36235 16.8 5.47263V11.509Z" fill="#CA1E1E"/>
<path d="M14.0909 6.39563H12.5636C12.2323 6.39563 11.9636 6.66426 11.9636 6.99564C11.9636 7.32702 12.2322 7.59565 12.5636 7.59565H14.0909C14.4222 7.59565 14.6909 7.32702 14.6909 6.99564C14.6909 6.66426 14.4223 6.39563 14.0909 6.39563Z" fill="#CA1E1E"/>
<path d="M11.6 13.4215H6.4C6.06865 13.4215 5.79999 13.6901 5.79999 14.0215C5.79999 14.3529 6.06862 14.6215 6.4 14.6215H11.6C11.9313 14.6215 12.2 14.3529 12.2 14.0215C12.2 13.6901 11.9314 13.4215 11.6 13.4215Z" fill="#CA1E1E"/>
<path d="M11.6 11.5292H6.4C6.06865 11.5292 5.79999 11.7978 5.79999 12.1292C5.79999 12.4606 6.06862 12.7292 6.4 12.7292H11.6C11.9313 12.7292 12.2 12.4606 12.2 12.1292C12.2 11.7978 11.9314 11.5292 11.6 11.5292Z" fill="#CA1E1E"/>
</svg>
