<svg width="18" height="18" viewBox="0 0 18 18" fill="none" xmlns="http://www.w3.org/2000/svg">
<g clip-path="url(#clip0)">
<path d="M15.2884 11.4714V15.5833H2.71098V11.4714H0.29361V16.7919C0.29361 17.459 0.834006 18 1.5041 18H16.4953C17.1648 18 17.7058 17.4596 17.7058 16.7919V11.4714H15.2884Z" fill="#CA1E1E"/>
<path d="M8.77841 11.0637L5.31748 6.88165C5.31748 6.88165 4.79089 6.38448 5.36191 6.38448C5.93293 6.38448 7.31214 6.38448 7.31214 6.38448C7.31214 6.38448 7.31214 6.05004 7.31214 5.53426C7.31214 4.06378 7.31214 1.38762 7.31214 0.296618C7.31214 0.296618 7.23468 0 7.68141 0C8.13174 0 10.1042 0 10.4266 0C10.7485 0 10.7413 0.249783 10.7413 0.249783C10.7413 1.30776 10.7413 4.07639 10.7413 5.49883C10.7413 5.95997 10.7413 6.25899 10.7413 6.25899C10.7413 6.25899 11.8473 6.25899 12.5414 6.25899C13.2343 6.25899 12.7125 6.77957 12.7125 6.77957C12.7125 6.77957 9.76794 10.6884 9.35724 11.0985C9.06182 11.3958 8.77841 11.0637 8.77841 11.0637Z" fill="#CA1E1E"/>
</g>
<defs>
<clipPath id="clip0">
<rect width="18" height="18" fill="white"/>
</clipPath>
</defs>
</svg>
