<svg width="19" height="18" viewBox="0 0 19 18" fill="none" xmlns="http://www.w3.org/2000/svg">
<path d="M12.3243 2.05941C9.63052 -0.68647 5.2462 -0.68647 2.55243 2.05941C-0.140766 4.80588 -0.140766 9.27441 2.55243 12.0209C4.95131 14.4656 8.68744 14.7275 11.3795 12.8185C11.4361 13.0917 11.5657 13.3525 11.7742 13.565L15.6972 17.5638C16.2689 18.1454 17.1927 18.1454 17.7615 17.5638C18.3326 16.9817 18.3326 16.04 17.7615 15.4596L13.8385 11.4596C13.6312 11.2488 13.3748 11.1161 13.1068 11.0584C14.9807 8.31368 14.7238 4.50588 12.3243 2.05941ZM11.0857 10.7584C9.0746 12.8084 5.80154 12.8084 3.79099 10.7584C1.78102 8.70833 1.78102 5.37256 3.79099 3.32253C5.80154 1.27309 9.0746 1.27309 11.0857 3.32253C13.0969 5.37256 13.0969 8.70833 11.0857 10.7584Z" fill="#CA1E1E"/>
</svg>
