<?xml version="1.0" encoding="UTF-8"?>
<!DOCTYPE svg PUBLIC "-//W3C//DTD SVG 1.1//EN" "http://www.w3.org/Graphics/SVG/1.1/DTD/svg11.dtd">
<!-- Creator: CorelDRAW 2020 (64-Bit) -->
<svg xmlns="http://www.w3.org/2000/svg" xml:space="preserve" width="3.9517mm" height="5.2531mm" version="1.1" style="shape-rendering:geometricPrecision; text-rendering:geometricPrecision; image-rendering:optimizeQuality; fill-rule:evenodd; clip-rule:evenodd"
viewBox="0 0 28.89 38.4"
 xmlns:xlink="http://www.w3.org/1999/xlink"
 xmlns:xodm="http://www.corel.com/coreldraw/odm/2003">
 <defs>
  <style type="text/css">
   <![CDATA[
    .fil0 {fill:#CA1E1E}
   ]]>
  </style>
 </defs>
 <g id="Слой_x0020_1">
  <metadata id="CorelCorpID_0Corel-Layer"/>
  <g id="_1145794096">
   <path class="fil0" d="M12.91 33.32l0 -19.95c0,-1.76 2.74,-2.19 2.74,0.39l0 20.35c0,1.13 -2.74,2.21 -2.74,-0.78zm-6.85 -21.32c1.68,0 1.33,2.37 1.71,5.34 0.15,1.16 0.17,2.12 0.27,3.25l0.94 9.42c0.17,1.96 1.04,5.2 -0.96,5.19 -1.12,-0 -1.26,-0.7 -1.41,-1.84l-0.94 -9.63c-0.13,-2.14 -0.42,-4.25 -0.6,-6.44 -0.08,-0.91 -0.25,-2.3 -0.35,-3.18 -0.16,-1.31 0.15,-2.12 1.35,-2.12zm16.04 0c1.43,0 1.7,0.33 1.6,1.78l-1.4 19.15c-0.12,3.57 -2.74,2.49 -2.76,0.59 -0.01,-0.74 0.15,-0.95 0.2,-1.58l1.24 -17.54c0.11,-0.9 0.03,-2.4 1.12,-2.4zm-18.39 26.41l21.52 0c0,-1.82 1.32,-12.01 1.57,-14.86l1.19 -11.14c0.1,-1.19 0.37,-2.41 0.37,-3.73l-27.97 0c0,2.36 0.52,5.14 0.78,7.43l2.54 22.3z"/>
   <path class="fil0" d="M0 6.32c0,0.67 -0.03,1.05 0.44,1.52 1.13,1.13 2.85,0.45 4.73,0.13l21.58 -3.65c3.6,-0.63 1.82,-4.06 0.63,-4.06 -2.31,0 -6.73,1.44 -7.58,0.94 -0,-0 -0.47,-0.37 -0.56,-0.43 -0.27,-0.2 -0.44,-0.32 -0.7,-0.49 -1.06,-0.7 -3.5,0.08 -5.75,0.45 -0.7,0.12 -1.21,0.2 -1.83,0.32 -1.64,0.3 -1.25,0.21 -1.6,0.74 -1.37,2.09 0.32,1.43 -6.65,2.54 -1.38,0.22 -2.71,0.45 -2.71,1.99z"/>
  </g>
 </g>
</svg>
